[Header]
FileType HTR
DataType HTRS
FileVersion 1
NumSegments 64
NumFrames 4
DataFrameRate 30
EulerRotationOrder ZYX
CalibrationUnits mm
RotationUnits Degrees
GlobalAxisofGravity Y
BoneLengthAxis Y
ScaleFactor 1.0
[SegmentNames&Hierarchy]
Hips	GLOBAL
Spine	Hips
Spine1	Spine
Spine2	Spine1
Neck	Spine2
Head	Neck
LeftEye	Head
RightEye	Head
LeftShoulder	Spine2
LeftArm	LeftShoulder
LeftForeArm	LeftArm
LeftHand	LeftForeArm
LeftHandThumb1	LeftHand
LeftHandThumb2	LeftHandThumb1
LeftHandThumb3	LeftHandThumb2
LeftHandThumb4	LeftHandThumb3
LeftHandIndex1	LeftHand
LeftHandIndex2	LeftHandIndex1
LeftHandIndex3	LeftHandIndex2
LeftHandIndex4	LeftHandIndex3
LeftHandMiddle1	LeftHand
LeftHandMiddle2	LeftHandMiddle1
LeftHandMiddle3	LeftHandMiddle2
LeftHandMiddle4	LeftHandMiddle3
LeftHandRing1	LeftHand
LeftHandRing2	LeftHandRing1
LeftHandRing3	LeftHandRing2
LeftHandRing4	LeftHandRing3
LeftHandPinky1	LeftHand
LeftHandPinky2	LeftHandPinky1
LeftHandPinky3	LeftHandPinky2
LeftHandPinky4	LeftHandPinky3
RightShoulder	Spine2
RightArm	RightShoulder
RightForeArm	RightArm
RightHand	RightForeArm
RightHandPinky1	RightHand
RightHandPinky2	RightHandPinky1
RightHandPinky3	RightHandPinky2
RightHandPinky4	RightHandPinky3
RightHandRing1	RightHand
RightHandRing2	RightHandRing1
RightHandRing3	RightHandRing2
RightHandRing4	RightHandRing3
RightHandMiddle1	RightHand
RightHandMiddle2	RightHandMiddle1
RightHandMiddle3	RightHandMiddle2
RightHandMiddle4	RightHandMiddle3
RightHandIndex1	RightHand
RightHandIndex2	RightHandIndex1
RightHandIndex3	RightHandIndex2
RightHandIndex4	RightHandIndex3
RightHandThumb1	RightHand
RightHandThumb2	RightHandThumb1
RightHandThumb3	RightHandThumb2
RightHandThumb4	RightHandThumb3
LeftUpLeg	Hips
LeftLeg	LeftUpLeg
LeftFoot	LeftLeg
LeftToeBase	LeftFoot
RightUpLeg	Hips
RightLeg	RightUpLeg
RightFoot	RightLeg
RightToeBase	RightFoot
[BasePosition]
Hips	0	0	0	0	0	0	1
Spine	0	0	0	0	0	0	1
Spine1	0	0	0	0	0	0	1
Spine2	0	0	0	0	0	0	1
Neck	0	0	0	0	0	0	1
Head	0	0	0	0	0	0	1
LeftEye	0	0	0	0	0	0	1
RightEye	0	0	0	0	0	0	1
LeftShoulder	0	0	0	0	0	0	1
LeftArm	0	0	0	0	0	0	1
LeftForeArm	0	0	0	0	0	0	1
LeftHand	0	0	0	0	0	0	1
LeftHandThumb1	0	0	0	0	0	0	1
LeftHandThumb2	0	0	0	0	0	0	1
LeftHandThumb3	0	0	0	0	0	0	1
LeftHandThumb4	0	0	0	0	0	0	1
LeftHandIndex1	0	0	0	0	0	0	1
LeftHandIndex2	0	0	0	0	0	0	1
LeftHandIndex3	0	0	0	0	0	0	1
LeftHandIndex4	0	0	0	0	0	0	1
LeftHandMiddle1	0	0	0	0	0	0	1
LeftHandMiddle2	0	0	0	0	0	0	1
LeftHandMiddle3	0	0	0	0	0	0	1
LeftHandMiddle4	0	0	0	0	0	0	1
LeftHandRing1	0	0	0	0	0	0	1
LeftHandRing2	0	0	0	0	0	0	1
LeftHandRing3	0	0	0	0	0	0	1
LeftHandRing4	0	0	0	0	0	0	1
LeftHandPinky1	0	0	0	0	0	0	1
LeftHandPinky2	0	0	0	0	0	0	1
LeftHandPinky3	0	0	0	0	0	0	1
LeftHandPinky4	0	0	0	0	0	0	1
RightShoulder	0	0	0	0	0	0	1
RightArm	0	0	0	0	0	0	1
RightForeArm	0	0	0	0	0	0	1
RightHand	0	0	0	0	0	0	1
RightHandPinky1	0	0	0	0	0	0	1
RightHandPinky2	0	0	0	0	0	0	1
RightHandPinky3	0	0	0	0	0	0	1
RightHandPinky4	0	0	0	0	0	0	1
RightHandRing1	0	0	0	0	0	0	1
RightHandRing2	0	0	0	0	0	0	1
RightHandRing3	0	0	0	0	0	0	1
RightHandRing4	0	0	0	0	0	0	1
RightHandMiddle1	0	0	0	0	0	0	1
RightHandMiddle2	0	0	0	0	0	0	1
RightHandMiddle3	0	0	0	0	0	0	1
RightHandMiddle4	0	0	0	0	0	0	1
RightHandIndex1	0	0	0	0	0	0	1
RightHandIndex2	0	0	0	0	0	0	1
RightHandIndex3	0	0	0	0	0	0	1
RightHandIndex4	0	0	0	0	0	0	1
RightHandThumb1	0	0	0	0	0	0	1
RightHandThumb2	0	0	0	0	0	0	1
RightHandThumb3	0	0	0	0	0	0	1
RightHandThumb4	0	0	0	0	0	0	1
LeftUpLeg	0	0	0	0	0	0	1
LeftLeg	0	0	0	0	0	0	1
LeftFoot	0	0	0	0	0	0	1
LeftToeBase	0	0	0	0	0	0	1
RightUpLeg	0	0	0	0	0	0	1
RightLeg	0	0	0	0	0	0	1
RightFoot	0	0	0	0	0	0	1
RightToeBase	0	0	0	0	0	0	1
[Hips]
13	3.551222086	1022.387817	16.62283325	2.153095245	-5.106360912	-5.266401768	1.0
14	1.782468081	1020.329468	11.80620384	3.241059542	-4.894337177	-5.93494463	1.0
15	-0.3494423628	1018.331055	6.67522192	4.292298794	-4.724603176	-6.675018787	1.0
16	-2.633811951	1016.321533	2.436275482	5.178291321	-4.628963947	-7.398829937	1.0
[Spine]
13	0	101.8159943	1.315000057	4.011974335	1.256298304	2.783929348	1.0
14	0	101.8159943	1.315000057	4.362179279	1.278582573	2.67933321	1.0
15	0	101.8159943	1.315000057	4.727149963	1.321716428	2.566677094	1.0
16	0	101.8159943	1.315000057	4.95621109	1.416767836	2.487526655	1.0
[Spine1]
13	0	100.8349991	-10.00800037	2.016889334	0.07607158273	1.326743484	1.0
14	0	100.8349991	-10.00800037	2.362600327	0.09920312464	1.164357066	1.0
15	0	100.8349991	-10.00800037	2.711784601	0.1516647041	0.9879610538	1.0
16	0	100.8349991	-10.00800037	2.913814783	0.2742784321	0.8572590947	1.0
[Spine2]
13	0	91	-13.73399925	1.991243958	0.09219580144	1.333288431	1.0
14	0	91	-13.73399925	2.338067293	0.1189526618	1.173764706	1.0
15	0	91	-13.73399925	2.688397884	0.1751108617	1.00056386	1.0
16	0	91	-13.73399925	2.891031742	0.2994472384	0.8719410896	1.0
[Neck]
13	0	166.7169952	-25.16200066	4.133882523	0.2667371631	-0.7049412727	1.0
14	0	166.7169952	-25.16200066	4.023386955	0.2598350644	-1.128861904	1.0
15	0	166.7169952	-25.16200066	4.165353298	0.2790395021	-1.700882316	1.0
16	0	166.7169952	-25.16200066	5.038860798	0.4638761878	-2.676228046	1.0
[Head]
13	0	96.17900085	16.84999847	-14.93761539	2.654722452	-5.390944481	1.0
14	0	96.17900085	16.84999847	-19.02853012	1.895303845	-5.401501179	1.0
15	0	96.17900085	16.84999847	-23.2976265	1.160825133	-5.388084412	1.0
16	0	96.17900085	16.84999847	-25.49798775	1.318458438	-5.932172775	1.0
[LeftEye]
13	30.6760006	64.09500122	92.83599854	0	0	0	1.0
14	30.6760006	64.09500122	92.83599854	0	0	0	1.0
15	30.6760006	64.09500122	92.83599854	0	0	0	1.0
16	30.6760006	64.09500122	92.83599854	0	0	0	1.0
[RightEye]
13	-30.6760006	64.09500122	92.83499908	0	0	0	1.0
14	-30.6760006	64.09500122	92.83499908	0	0	0	1.0
15	-30.6760006	64.09500122	92.83499908	0	0	0	1.0
16	-30.6760006	64.09500122	92.83499908	0	0	0	1.0
[LeftShoulder]
13	45.70400238	109.4599991	-26.28000069	3.095244408	-20.57931709	-2.824752569	1.0
14	45.70400238	109.4599991	-26.28000069	3.165060043	-21.22739792	-3.009059906	1.0
15	45.70400238	109.4599991	-26.28000069	3.443728209	-21.45134163	-4.420230865	1.0
16	45.70400238	109.4599991	-26.28000069	4.106461048	-20.41762924	-8.054509163	1.0
[LeftArm]
13	105.923996	-5.24600029	-22.32099915	19.22616196	-4.447833061	-75.68498993	1.0
14	105.923996	-5.24600029	-22.32099915	18.5856514	-6.490764618	-74.46520996	1.0
15	105.923996	-5.24600029	-22.32099915	18.06439972	-8.912065506	-72.14827728	1.0
16	105.923996	-5.24600029	-22.32099915	17.73819733	-11.4257021	-67.95600891	1.0
[LeftForeArm]
13	278.414978	-0.0009999999311	0	7.240460036e-06	-8.823464394	-0.0001983282855	1.0
14	278.414978	-0.0009999999311	0	9.430673344e-07	-7.120091438	-0.0002034500067	1.0
15	278.414978	-0.0009999999311	0	-6.579725323e-06	-4.670219898	-0.0002082454739	1.0
16	278.414978	-0.0009999999311	0	-8.571737453e-07	-2.104454756	-0.000189416518	1.0
[LeftHand]
13	283.2879944	0	0	-37.1462326	-7.741280556	-2.95123148	1.0
14	283.2879944	0	0	-37.06031418	-8.368443489	-3.647726536	1.0
15	283.2879944	0	0	-36.09505463	-8.325975418	-4.751348019	1.0
16	283.2879944	0	0	-31.84900093	-5.464813232	-6.111114025	1.0
[LeftHandThumb1]
13	24.6609993	-15.75	26.8239994	-7.007737637	-0.7974846959	7.195471287	1.0
14	24.6609993	-15.75	26.8239994	-5.630841255	-1.085687041	5.930751801	1.0
15	24.6609993	-15.75	26.8239994	-3.745001316	-1.037735105	4.543931007	1.0
16	24.6609993	-15.75	26.8239994	-3.992144585	-0.4895646572	5.129907131	1.0
[LeftHandThumb2]
13	32.29800034	-18.64699936	18.64699936	19.73893929	22.31156349	18.26499367	1.0
14	32.29800034	-18.64699936	18.64699936	19.74194908	22.10759735	18.39900589	1.0
15	32.29800034	-18.64699936	18.64699936	19.75302505	21.7175045	18.81736565	1.0
16	32.29800034	-18.64699936	18.64699936	19.73120117	21.79920959	18.42077065	1.0
[LeftHandThumb3]
13	26.52600098	-15.31499958	15.31499958	-11.74567604	3.310799837	8.598599434	1.0
14	26.52600098	-15.31499958	15.31499958	-11.86086273	3.451194286	8.706253052	1.0
15	26.52600098	-15.31499958	15.31499958	-12.08958244	3.754650116	8.83130455	1.0
16	26.52600098	-15.31499958	15.31499958	-12.10764694	3.71190834	9.066295624	1.0
[LeftHandThumb4]
13	19.54599953	-11.28499985	11.28499985	0	0	0	1.0
14	19.54599953	-11.28499985	11.28499985	0	0	0	1.0
15	19.54599953	-11.28499985	11.28499985	0	0	0	1.0
16	19.54599953	-11.28499985	11.28499985	0	0	0	1.0
[LeftHandIndex1]
13	91.09299469	-5.170999527	22.60099792	0.2240470797	-1.549211025	-4.883759499	1.0
14	91.09299469	-5.170999527	22.60099792	0.3230969608	-1.302698135	-5.778099537	1.0
15	91.09299469	-5.170999527	22.60099792	0.4330280423	-0.9580141902	-7.194173336	1.0
16	91.09299469	-5.170999527	22.60099792	0.4516206682	-0.7055765986	-8.943982124	1.0
[LeftHandIndex2]
13	36.76399994	0	0	-0.2637902796	1.735843539	-17.28061295	1.0
14	36.76399994	0	0	-0.2635590434	1.735107183	-17.27302551	1.0
15	36.76399994	0	0	-0.2635798454	1.735177636	-17.27373314	1.0
16	36.76399994	0	0	-0.2639839947	1.736469269	-17.28702736	1.0
[LeftHandIndex3]
13	28.83100128	0	0	-0.05598515645	0.8070668578	-7.936686993	1.0
14	28.83100128	0	0	-0.05590810999	0.8065192699	-7.931256771	1.0
15	28.83100128	0	0	-0.05595871806	0.8068755865	-7.934781551	1.0
16	28.83100128	0	0	-0.05616463721	0.8083106875	-7.949049473	1.0
[LeftHandIndex4]
13	23.92700005	0	0	0	0	0	1.0
14	23.92700005	0	0	0	0	0	1.0
15	23.92700005	0	0	0	0	0	1.0
16	23.92700005	0	0	0	0	0	1.0
[LeftHandMiddle1]
13	95.33399963	0	0	-0.5656452775	2.424891233	-12.18065262	1.0
14	95.33399963	0	0	-0.6499129534	2.653715372	-13.49666977	1.0
15	95.33399963	0	0	-0.7770691514	2.942890644	-15.45067024	1.0
16	95.33399963	0	0	-0.9505771399	3.081610441	-17.96687126	1.0
[LeftHandMiddle2]
13	36.98199844	0	0	-0.2462648302	1.678495646	-16.69229698	1.0
14	36.98199844	0	0	-0.2404850274	1.659044027	-16.4932251	1.0
15	36.98199844	0	0	-0.2357254326	1.642957211	-16.32865524	1.0
16	36.98199844	0	0	-0.2373915166	1.648632288	-16.38670731	1.0
[LeftHandMiddle3]
13	29.50900078	0	0	-0.2766523957	1.776651621	-17.70037079	1.0
14	29.50900078	0	0	-0.2705520391	1.757367134	-17.50191879	1.0
15	29.50900078	0	0	-0.265532434	1.741431475	-17.33798981	1.0
16	29.50900078	0	0	-0.26728338	1.747033238	-17.39557838	1.0
[LeftHandMiddle4]
13	28.3390007	0	0	0	0	0	1.0
14	28.3390007	0	0	0	0	0	1.0
15	28.3390007	0	0	0	0	0	1.0
16	28.3390007	0	0	0	0	0	1.0
[LeftHandRing1]
13	91.04499817	-0.4390000105	-18.65100098	-1.280282378	3.50433898	-22.41477394	1.0
14	91.04499817	-0.4390000105	-18.65100098	-1.300371647	3.518125057	-22.67416954	1.0
15	91.04499817	-0.4390000105	-18.65100098	-1.320599794	3.53192234	-22.93448257	1.0
16	91.04499817	-0.4390000105	-18.65100098	-1.340863943	3.545647383	-23.19399261	1.0
[LeftHandRing2]
13	31.54000092	0	0	-0.4821166992	2.323816061	-23.43857574	1.0
14	31.54000092	0	0	-0.4944141507	2.351921082	-23.73975372	1.0
15	31.54000092	0	0	-0.5062683821	2.378705025	-24.02732086	1.0
16	31.54000092	0	0	-0.517400682	2.403490543	-24.29407692	1.0
[LeftHandRing3]
13	29.37700081	0	0	-0.3663234413	2.036221266	-20.39526367	1.0
14	29.37700081	0	0	-0.3771633506	2.065080166	-20.69781494	1.0
15	29.37700081	0	0	-0.3876308799	2.092593431	-20.98672104	1.0
16	29.37700081	0	0	-0.3974805474	2.118070841	-21.25476837	1.0
[LeftHandRing4]
13	26.47500038	0	0	0	0	0	1.0
14	26.47500038	0	0	0	0	0	1.0
15	26.47500038	0	0	0	0	0	1.0
16	26.47500038	0	0	0	0	0	1.0
[LeftHandPinky1]
13	80.77799988	-4.887000084	-38.06099701	-2.61938858	4.677803516	-29.18741608	1.0
14	80.77799988	-4.887000084	-38.06099701	-2.749120712	4.827281952	-30.97294617	1.0
15	80.77799988	-4.887000084	-38.06099701	-2.861479759	5.054338932	-33.11476898	1.0
16	80.77799988	-4.887000084	-38.06099701	-3.080181599	5.139163971	-35.1216507	1.0
[LeftHandPinky2]
13	36	0	0	-0.3508114219	1.99402976	-19.95411873	1.0
14	36	0	0	-0.3537671566	2.002270699	-20.04001236	1.0
15	36	0	0	-0.3606206179	2.020830154	-20.23414612	1.0
16	36	0	0	-0.3860407472	2.088449717	-20.94311523	1.0
[LeftHandPinky3]
13	21.14200211	0	0	-0.3201683462	1.907560587	-19.05394554	1.0
14	21.14200211	0	0	-0.3229933381	1.915843487	-19.13981628	1.0
15	21.14200211	0	0	-0.3295506835	1.934500337	-19.33386993	1.0
16	21.14200211	0	0	-0.3539004028	2.002510548	-20.04275703	1.0
[LeftHandPinky4]
13	19.75699997	0	0	0	0	0	1.0
14	19.75699997	0	0	0	0	0	1.0
15	19.75699997	0	0	0	0	0	1.0
16	19.75699997	0	0	0	0	0	1.0
[RightShoulder]
13	-45.70000076	109.4620056	-26.28000069	3.994210005	19.69916153	5.638958454	1.0
14	-45.70000076	109.4620056	-26.28000069	4.038980007	21.15940666	5.068932533	1.0
15	-45.70000076	109.4620056	-26.28000069	4.272194862	22.38453674	5.50645113	1.0
16	-45.70000076	109.4620056	-26.28000069	4.928208351	22.4887104	7.850256443	1.0
[RightArm]
13	-105.9280014	-5.248000145	-22.32099915	27.54775429	4.960510731	67.33580017	1.0
14	-105.9280014	-5.248000145	-22.32099915	26.82246399	7.652830124	68.83524323	1.0
15	-105.9280014	-5.248000145	-22.32099915	26.77453232	10.90916729	69.66886902	1.0
16	-105.9280014	-5.248000145	-22.32099915	28.5576973	13.9546032	68.43122864	1.0
[RightForeArm]
13	-278.414978	0	0	-4.555226951e-06	15.58280182	2.70066721e-06	1.0
14	-278.414978	0	0	-1.60455977e-06	13.64673233	9.835162018e-08	1.0
15	-278.414978	0	0	1.274034162e-06	11.08764648	-3.554376008e-06	1.0
16	-278.414978	0	0	-2.213043899e-06	9.910703659	-6.376634246e-06	1.0
[RightHand]
13	-283.2879944	0	0.0009999999311	-25.70539284	6.94859314	4.002802849	1.0
14	-283.2879944	0	0.0009999999311	-26.23662376	7.703216553	4.591017246	1.0
15	-283.2879944	0	0.0009999999311	-24.87684822	7.527871132	5.346389294	1.0
16	-283.2879944	0	0.0009999999311	-15.92309189	3.903333664	5.516352177	1.0
[RightHandPinky1]
13	-80.76699829	-4.885000229	-38.06000137	-2.660954475	-4.338775635	39.98274612	1.0
14	-80.76699829	-4.885000229	-38.06000137	-3.199910402	-4.166014671	45.88732147	1.0
15	-80.76699829	-4.885000229	-38.06000137	-3.760551453	-3.934258938	51.83969116	1.0
16	-80.76699829	-4.885000229	-38.06000137	-4.385821342	-3.600805044	58.31236649	1.0
[RightHandPinky2]
13	-36	0	0.0009999999311	-0.3514302075	-1.771127939	22.46358109	1.0
14	-36	0	0.0009999999311	-0.3857118487	-1.851004124	23.53778076	1.0
15	-36	0	0.0009999999311	-0.4271945953	-1.944372773	24.80056572	1.0
16	-36	0	0.0009999999311	-0.4826842844	-2.060235739	26.38859558	1.0
[RightHandPinky3]
13	-21.14200211	0	0	-0.3223401904	-1.699044347	21.48340607	1.0
14	-21.14200211	0	0	-0.3541010916	-1.776710629	22.52027512	1.0
15	-21.14200211	0	0	-0.3925910294	-1.867635608	23.74050713	1.0
16	-21.14200211	0	0	-0.4442070127	-1.980773211	25.27759171	1.0
[RightHandPinky4]
13	-19.75699997	0	0	0	0	0	1.0
14	-19.75699997	0	0	0	0	0	1.0
15	-19.75699997	0	0	0	0	0	1.0
16	-19.75699997	0	0	0	0	0	1.0
[RightHandRing1]
13	-91.03599548	-0.4390000105	-18.65100098	-2.004365444	-1.333045602	33.76522446	1.0
14	-91.03599548	-0.4390000105	-18.65100098	-2.397102356	-1.526182294	38.63761902	1.0
15	-91.03599548	-0.4390000105	-18.65100098	-2.808893204	-1.742406845	43.57146454	1.0
16	-91.03599548	-0.4390000105	-18.65100098	-3.277232647	-1.905975103	48.9850235	1.0
[RightHandRing2]
13	-31.54000092	0	0	-0.8145854473	-2.624993801	34.47517776	1.0
14	-31.54000092	0	0	-1.079366684	-2.953957081	39.70624542	1.0
15	-31.54000092	0	0	-1.39035356	-3.309786081	45.56252289	1.0
16	-31.54000092	0	0	-1.701835871	-3.588273764	50.73661804	1.0
[RightHandRing3]
13	-29.37700081	0	0	-0.6788586378	-2.415644646	31.38943863	1.0
14	-29.37700081	0	0	-0.9254485369	-2.758342266	36.61816406	1.0
15	-29.37700081	0	0	-1.216739058	-3.130410671	42.47255325	1.0
16	-29.37700081	0	0	-1.512682319	-3.425270081	47.64479828	1.0
[RightHandRing4]
13	-26.47500038	0	0	0	0	0	1.0
14	-26.47500038	0	0	0	0	0	1.0
15	-26.47500038	0	0	0	0	0	1.0
16	-26.47500038	0	0	0	0	0	1.0
[RightHandMiddle1]
13	-95.32500458	0	0	-1.119591713	-4.222556114	21.59158516	1.0
14	-95.32500458	0	0	-1.302757263	-4.936328888	24.30175209	1.0
15	-95.32500458	0	0	-1.50361836	-5.557050228	27.09972572	1.0
16	-95.32500458	0	0	-1.88756597	-5.697843075	32.2208252	1.0
[RightHandMiddle2]
13	-36.98199844	0	0	-0.2304524034	-1.444028735	18.13375282	1.0
14	-36.98199844	0	0	-0.2373266667	-1.464799881	18.40410042	1.0
15	-36.98199844	0	0	-0.2448938489	-1.487393141	18.69849396	1.0
16	-36.98199844	0	0	-0.254319042	-1.514951944	19.05817604	1.0
[RightHandMiddle3]
13	-29.50900078	0	0	-0.2566605508	-1.52372551	19.14657784	1.0
14	-29.50900078	0	0	-0.2640296221	-1.544732213	19.4216404	1.0
15	-29.50900078	0	0	-0.272118181	-1.567522526	19.720438	1.0
16	-29.50900078	0	0	-0.2819952071	-1.594801664	20.07879066	1.0
[RightHandMiddle4]
13	-28.3390007	0	0.0009999999311	0	0	0	1.0
14	-28.3390007	0	0.0009999999311	0	0	0	1.0
15	-28.3390007	0	0.0009999999311	0	0	0	1.0
16	-28.3390007	0	0.0009999999311	0	0	0	1.0
[RightHandIndex1]
13	-91.08300018	-5.167999744	22.60099792	0.688957572	-1.398469448	6.670001984	1.0
14	-91.08300018	-5.167999744	22.60099792	0.7842185497	-2.445396423	8.312477112	1.0
15	-91.08300018	-5.167999744	22.60099792	0.8388572335	-3.368716478	10.14360237	1.0
16	-91.08300018	-5.167999744	22.60099792	0.662669003	-3.850604773	14.01490402	1.0
[RightHandIndex2]
13	-36.76399994	0	0	-0.1869766265	-1.303856373	16.32072067	1.0
14	-36.76399994	0	0	-0.1796401143	-1.27843523	15.9939003	1.0
15	-36.76399994	0	0	-0.1723260283	-1.252771258	15.6642952	1.0
16	-36.76399994	0	0	-0.1665421128	-1.231937885	15.39729977	1.0
[RightHandIndex3]
13	-28.83100128	0	0	-0.03426096588	-0.5628812313	6.967080116	1.0
14	-28.83100128	0	0	-0.03115889803	-0.5366071463	6.640395641	1.0
15	-28.83100128	0	0	-0.02811916731	-0.5100998878	6.310920715	1.0
16	-28.83100128	0	0	-0.0257917922	-0.4886145592	6.044006348	1.0
[RightHandIndex4]
13	-23.92700005	0	0	0	0	0	1.0
14	-23.92700005	0	0	0	0	0	1.0
15	-23.92700005	0	0	0	0	0	1.0
16	-23.92700005	0	0	0	0	0	1.0
[RightHandThumb1]
13	-24.64799881	-15.72700024	26.82600021	-1.990123034	0.2993086874	-1.265895009	1.0
14	-24.64799881	-15.72700024	26.82600021	-2.316725254	1.069205165	0.5067762733	1.0
15	-24.64799881	-15.72700024	26.82600021	-2.633576632	1.853888392	2.008843184	1.0
16	-24.64799881	-15.72700024	26.82600021	-2.908319235	2.698334694	2.562615156	1.0
[RightHandThumb2]
13	-32.29800034	-18.64699936	18.64699936	19.42432594	-21.43536377	-22.96179962	1.0
14	-32.29800034	-18.64699936	18.64699936	20.07410431	-22.01465607	-23.25635529	1.0
15	-32.29800034	-18.64699936	18.64699936	20.84670067	-22.69930458	-23.60910416	1.0
16	-32.29800034	-18.64699936	18.64699936	21.47151566	-23.23840714	-23.90281105	1.0
[RightHandThumb3]
13	-26.52600098	-15.31399918	15.31399918	-14.75920391	-6.390630245	-11.28348732	1.0
14	-26.52600098	-15.31399918	15.31399918	-15.08629227	-5.763072014	-11.17151546	1.0
15	-26.52600098	-15.31399918	15.31399918	-15.35782814	-5.135587692	-11.07420063	1.0
16	-26.52600098	-15.31399918	15.31399918	-15.5696373	-4.589020252	-10.99638462	1.0
[RightHandThumb4]
13	-19.54599953	-11.28499985	11.28499985	0	0	0	1.0
14	-19.54599953	-11.28499985	11.28499985	0	0	0	1.0
15	-19.54599953	-11.28499985	11.28499985	0	0	0	1.0
16	-19.54599953	-11.28499985	11.28499985	0	0	0	1.0
[LeftUpLeg]
13	82.07800293	-67.51699829	-15.99599934	-19.76916313	16.77046394	8.32305336	1.0
14	82.07800293	-67.51699829	-15.99599934	-21.97312355	17.11368942	8.740680695	1.0
15	82.07800293	-67.51699829	-15.99599934	-24.05773163	17.51070404	9.246628761	1.0
16	82.07800293	-67.51699829	-15.99599934	-25.67731857	17.8990612	9.767131805	1.0
[LeftLeg]
13	0	-443.7049866	2.845999956	22.72012138	0.5089680552	4.042133808	1.0
14	0	-443.7049866	2.845999956	23.91997337	0.1529739648	3.854906321	1.0
15	0	-443.7049866	2.845999956	24.96727562	-0.1907340735	3.675834179	1.0
16	0	-443.7049866	2.845999956	25.71468163	-0.4593428969	3.576674461	1.0
[LeftFoot]
13	0	-444.2789917	-29.8219986	-0.9481910467	0.4431757033	-7.372084141	1.0
14	0	-444.2789917	-29.8219986	-0.6421852112	0.4604771137	-7.244040489	1.0
15	0	-444.2789917	-29.8219986	-0.3494576514	0.4850959182	-7.111369133	1.0
16	0	-444.2789917	-29.8219986	-0.5589237809	0.492546618	-7.017458439	1.0
[LeftToeBase]
13	0	-87.28699493	107.1060028	-4.30396986	-7.480362001e-06	1.30602885e-07	1.0
14	0	-87.28699493	107.1060028	-4.2830863	-2.696366892e-06	1.352931776e-07	1.0
15	0	-87.28699493	107.1060028	-4.264235497	3.287360414e-06	4.039579835e-07	1.0
16	0	-87.28699493	107.1060028	-4.208333492	-1.556967618e-06	1.627900247e-06	1.0
[RightUpLeg]
13	-82.07800293	-67.51699829	-15.99599934	-9.957061768	-8.640472412	6.42377615	1.0
14	-82.07800293	-67.51699829	-15.99599934	-11.7232275	-8.099646568	7.560986519	1.0
15	-82.07800293	-67.51699829	-15.99599934	-13.35944271	-7.574882984	8.742009163	1.0
16	-82.07800293	-67.51699829	-15.99599934	-14.71027184	-7.181236267	9.726628304	1.0
[RightLeg]
13	0	-443.7049866	2.861999989	16.33968353	-8.744791985	-6.159534454	1.0
14	0	-443.7049866	2.861999989	17.02879333	-8.652208328	-6.346587181	1.0
15	0	-443.7049866	2.861999989	17.53009796	-8.595778465	-6.441397667	1.0
16	0	-443.7049866	2.861999989	17.97594452	-8.581537247	-6.352332115	1.0
[RightFoot]
13	0	-444.2770081	-29.83799934	-6.78813076	-2.821366549	4.074184895	1.0
14	0	-444.2770081	-29.83799934	-6.881015778	-3.469963074	3.665687323	1.0
15	0	-444.2770081	-29.83799934	-6.883466244	-4.038799286	3.197911739	1.0
16	0	-444.2770081	-29.83799934	-6.832010746	-4.349785805	3.01027751	1.0
[RightToeBase]
13	0	-87.28699493	107.1060028	-7.269247532	7.990420414e-08	2.230944119e-06	1.0
14	0	-87.28699493	107.1060028	-7.2159729	-9.553007203e-07	1.497183121e-06	1.0
15	0	-87.28699493	107.1060028	-7.154102325	-1.499705149e-06	4.436680854e-07	1.0
16	0	-87.28699493	107.1060028	-7.089328289	-1.604875251e-06	-1.287240963e-07	1.0
[EndOfFile]
